<?xml version="1.0" encoding="utf-8"?>
<!-- Generator: Adobe Illustrator 19.2.1, SVG Export Plug-In . SVG Version: 6.00 Build 0)  -->
<svg version="1.1" id="Layer_1" xmlns="http://www.w3.org/2000/svg" xmlns:xlink="http://www.w3.org/1999/xlink" x="0px" y="0px"
	 viewBox="0 0 200 50" style="enable-background:new 0 0 200 50;" xml:space="preserve">
<style type="text/css">
	.st0{fill:#FFFFFF;}
	.st1{fill:#00C8C8;}
</style>
<g>
	<g>
		<g>
			<rect x="134.8" y="0" width="10" height="50"/>
			<polygon points="100,20 110,20 130,0 115.9,0 97.9,17.9 80,0 65.9,0 90.9,25 74.2,41.7 45,0 35,0 0,50 13.4,50 40,12.1 66.6,50 
				66.6,50 80,50 80,50 97.9,32.1 115.9,50 130,50 			"/>
			<polygon points="195,50 200,45 200,25 195,20 160,20 160,10 185,10 175,0 155,0 150,5 150,5.4 150,25 155,30 190,30 190,40 
				150,40 160,50 			"/>
		</g>
		<g>
			<polygon class="st0" points="40,23.1 53,15.6 40,8.1 27,15.6 			"/>
			<polygon points="40,23.1 53,15.6 53,30.6 40,38.1 			"/>
			<polygon class="st1" points="40,23.1 27,15.6 27,30.6 40,38.1 			"/>
		</g>
	</g>
</g>
</svg>
