<?xml version="1.0"?>
<svg xmlns="http://www.w3.org/2000/svg" xmlns:xlink="http://www.w3.org/1999/xlink" version="1.1" id="Capa_1" x="0px" y="0px" viewBox="0 0 512 512" style="enable-background:new 0 0 512 512;" xml:space="preserve" width="512px" height="512px" class=""><g><path style="fill:#FFFFFF" d="M512,339.911c0,6.827-5.534,12.363-12.363,12.363H12.363C5.536,352.274,0,346.738,0,339.911V172.089  c0-6.828,5.536-12.363,12.363-12.363h487.274c6.829,0,12.363,5.535,12.363,12.363V339.911z" data-original="#4A94CC" class="" data-old_color="#ffffff"/><path style="fill:#FFFFFF" d="M20.605,339.911V172.089c0-6.828,5.536-12.363,12.363-12.363H12.363  C5.536,159.726,0,165.261,0,172.089V339.91c0,6.827,5.536,12.363,12.363,12.363h20.605C26.14,352.274,20.605,346.738,20.605,339.911  z" data-original="#2884BC" class="" data-old_color="#ffffff"/><g>
	<path style="fill:#003791" d="M446.604,278.522l-14.613-0.009v-54.87c0-7.194-3.984-9.757-7.713-9.757   c-2.39,0-5.075,0.909-7.972,2.699l-99.085,60.852c-7.943,4.871-6.296,11.898,3.509,11.898l91.531,0.012   c0,10.694-1.398,8.786,16.671,8.786c1.688,0,3.059-1.369,3.059-3.059v-5.733c19.272,0,17.669,1.454,17.669-7.76   C449.66,279.892,448.292,278.523,446.604,278.522z M412.28,231.87v46.625h-75.727L412.28,231.87z" data-original="#F4F4F4" class="active-path" data-old_color="#F4F4F4"/>
	<path style="fill:#003791" d="M161.712,213.884H65.948c-1.688,0-3.059,1.37-3.059,3.059v4.703c0,1.69,1.37,3.059,3.059,3.059   h89.925c6.61,0,10.401,4.482,10.401,12.296c0,7.815-3.791,12.298-10.401,12.298H83.585c-11.797,0-20.695,9.87-20.695,22.96   l0.006,22.814c0,1.689,1.37,3.058,3.059,3.058H79.51c1.688,0,3.058-1.369,3.058-3.059v-22.814c0-7.258,3.96-12.135,9.852-12.135   h69.292c14.947,0,24.233-8.852,24.233-23.102C185.945,222.75,176.659,213.884,161.712,213.884z" data-original="#F4F4F4" class="active-path" data-old_color="#F4F4F4"/>
	<path style="fill:#003791" d="M322.06,221.631v-4.704c0-1.692-1.371-3.059-3.061-3.059l-52.271,0.01   c-14.947,0-24.233,8.86-24.233,23.123v38.011c0,7.81-3.791,12.289-10.401,12.289h-49.053c-1.688,0-3.058,1.37-3.058,3.059v4.713   c0,1.69,1.37,3.059,3.058,3.059h54.885c14.959,0,24.249-8.855,24.249-23.111v-38.033c0-7.816,3.789-12.298,10.393-12.298h46.434   C320.69,224.69,322.06,223.32,322.06,221.631z" data-original="#F4F4F4" class="active-path" data-old_color="#F4F4F4"/>
</g></g> </svg>
